<?xml version="1.0" encoding="utf-8"?>
<!-- Generator: Adobe Illustrator 20.1.0, SVG Export Plug-In . SVG Version: 6.00 Build 0)  -->
<svg version="1.1" xmlns="http://www.w3.org/2000/svg" xmlns:xlink="http://www.w3.org/1999/xlink" x="0px" y="0px"
	 viewBox="0 0 125 40" enable-background="new 0 0 125 40" xml:space="preserve">
<g id="bg" display="none">
	<rect display="inline" fill="#FFFFFF" width="125" height="40"/>
</g>
<g id="icons">
	<g>
		<g>
			<g>
				<path fill="#111111" d="M65.144,14.615c0.558,0.693,0.646,1.657,0.284,2.935l-2.316,8.191h-3.409l-0.021-0.869
					c-0.75,0.441-2.144,1.084-3.955,1.084c-1.567,0-2.678-0.378-3.288-1.135c-0.391-0.486-0.559-1.11-0.506-1.862
					c0.023-0.325,0.087-0.675,0.192-1.048c0.732-2.587,3.181-3.943,7.044-3.943h2.166l0.214-0.757
					c0.04-0.142,0.064-0.269,0.072-0.378c0.012-0.174-0.017-0.296-0.081-0.375c-0.21-0.261-0.924-0.289-1.679-0.289
					c-1.598,0-3.951,0.492-4.408,0.591l-0.597,0.13l0.785-2.778l0.237-0.058c0.105-0.027,2.573-0.635,5.135-0.635
					C62.474,13.42,64.287,13.552,65.144,14.615z M59.729,20.119c-2.402,0.046-3.262,0.492-3.634,1.808
					c-0.057,0.203-0.092,0.384-0.103,0.541c-0.018,0.255,0.027,0.442,0.125,0.564c0.16,0.199,0.523,0.301,1.172,0.301
					c1.153,0,2.343-0.548,2.741-0.749l0.701-2.48L59.729,20.119z"/>
				<path fill="#111111" d="M79.449,14.76c0.845,1.048,0.943,2.714,0.315,4.936c-1.141,4.035-4.087,6.26-8.286,6.26
					c-0.916,0-1.785-0.192-2.316-0.36l-1.194,4.223h-3.975l4.577-16.184h3.086l0.144,0.858c0.744-0.446,2.086-1.072,3.765-1.072
					C76.76,13.42,78.479,13.555,79.449,14.76z M75.83,19.551c0.465-1.642,0.494-2.646,0.126-3.103
					c-0.267-0.332-0.783-0.406-1.506-0.406c-1.111,0-2.348,0.484-2.784,0.702l-1.802,6.372c0.453,0.108,1.249,0.26,2.02,0.26
					C73.297,23.376,74.874,22.933,75.83,19.551z"/>
				<path fill="#111111" d="M113.318,14.881c0.532,0.683,0.757,1.592,0.678,2.712c-0.046,0.655-0.195,1.382-0.447,2.178
					l-0.343,1.078h-8.348c-0.043,0.2-0.076,0.391-0.089,0.565c-0.036,0.513,0.062,0.907,0.287,1.183
					c0.435,0.535,1.313,0.608,2.051,0.608c0.819,0,1.87-0.141,2.72-0.283c0.851-0.141,1.5-0.284,1.513-0.287l0.6-0.132l-0.798,2.821
					l-0.234,0.06c-0.045,0.012-0.606,0.155-1.428,0.294c-0.822,0.14-1.905,0.277-2.994,0.277c-1.674,0-3.76-0.173-4.87-1.552
					c-0.851-1.057-0.97-2.672-0.372-4.789c1.524-5.39,5.716-6.196,8.072-6.196C111.209,13.42,112.56,13.908,113.318,14.881z
					 M105.558,18.505h4.443c0.103-0.421,0.174-0.799,0.196-1.113c0.038-0.537-0.043-0.91-0.231-1.141
					c-0.207-0.255-0.579-0.38-1.188-0.38C107.179,15.87,106.202,16.666,105.558,18.505z"/>
				<path fill="#111111" d="M51.667,14.533c0.52,0.646,0.605,1.582,0.269,2.771l-2.402,8.491h-3.975l2.43-8.594
					c0.09-0.317,0.077-0.525-0.013-0.638c-0.175-0.217-0.737-0.253-1.298-0.253c-1.466,0-3.124,0.653-3.641,0.873l-2.436,8.612
					h-3.975l3.424-12.107h3.177l0.159,1.103c0.908-0.449,2.927-1.318,5-1.318C50.009,13.473,51.089,13.815,51.667,14.533z"/>
				<path fill="#111111" d="M91.527,13.934l0.314,0.104l-0.748,2.646l-0.389-0.095c-0.01-0.002-0.486-0.117-1.122-0.232
					c-0.635-0.115-1.431-0.229-2.083-0.229c-1.846,0-2.199,0.512-2.317,0.928c-0.144,0.508,0.2,0.687,1.165,0.991l0.144,0.046
					l1.311,0.409c0.189,0.061,0.476,0.152,0.787,0.297c0.312,0.145,0.65,0.344,0.941,0.619c0.585,0.552,0.977,1.411,0.6,2.744
					c-0.963,3.406-4.397,3.793-6.862,3.793c-1.736,0-3.597-0.486-3.675-0.507l-0.343-0.091l0.784-2.776l0.391,0.097
					c0.011,0.003,0.564,0.139,1.253,0.275c0.691,0.137,1.513,0.271,2.066,0.271c1.627,0,2.31-0.314,2.527-1.078
					c0.162-0.574-0.124-0.733-1.229-1.104l-1.264-0.431c-0.213-0.074-0.513-0.177-0.834-0.33c-0.321-0.153-0.664-0.355-0.959-0.626
					c-0.592-0.543-0.989-1.361-0.64-2.594c0.657-2.324,3.064-3.643,6.568-3.643C89.964,13.42,91.462,13.911,91.527,13.934z"/>
				<path fill="#111111" d="M125,13.629l-0.903,3.192l-0.38-0.079c-0.01-0.002-1-0.206-1.867-0.206c-0.92,0-1.672,0.365-1.951,0.522
					l-2.456,8.684h-3.974l3.423-12.107h3.183l0.027,0.863c0.626-0.485,1.673-1.078,3.058-1.078c0.756,0,1.436,0.131,1.464,0.136
					L125,13.629z"/>
				<path fill="#111111" d="M99.147,13.634h3.44l-1.175,2.472h-2.964l-1.871,6.616c-0.03,0.108-0.045,0.19-0.049,0.252
					c-0.007,0.111,0.017,0.149,0.024,0.158c0.031,0.039,0.137,0.067,0.274,0.081c0.13,0.014,0.267,0.014,0.335,0.014
					c0.366,0,1.009-0.094,1.563-0.187c0.556-0.094,1.022-0.188,1.031-0.19l0.589-0.121l-0.77,2.726l-0.235,0.06
					c-0.072,0.018-1.756,0.442-3.491,0.442c-0.946,0-2.305-0.092-2.973-0.919c-0.314-0.392-0.447-0.893-0.404-1.516
					c0.021-0.294,0.08-0.615,0.18-0.966l1.823-6.449h-2.123l0.699-2.472h2.144c0.137-0.37,0.585-1.465,0.777-2.404l3.954-0.755
					l-0.013,0.062C99.627,11.921,99.272,13.192,99.147,13.634z"/>
			</g>
			<path fill="#111111" d="M20.929,27.481c-0.994,0.955-2.197,1.693-3.533,2.142c-1.336-0.448-2.539-1.187-3.533-2.142H20.929z"/>
			<path fill="#111111" d="M10.771,13.472c-1.398-1.18-3.06-2.069-4.879-2.555L5.89,21.824v0.442
				c0,6.363,5.135,11.435,11.512,11.435c6.378,0,11.503-5.094,11.503-11.457v-0.55l0.001-10.767
				c-1.825,0.489-3.484,1.355-4.884,2.542c-1.873-1.32-4.158-2.096-6.624-2.096C14.93,11.372,12.645,12.149,10.771,13.472z
				 M10.801,10.159c1.974-1.026,4.217-1.606,6.596-1.606c2.376,0,4.616,0.578,6.588,1.602c0.465-0.294,0.946-0.563,1.443-0.807
				c-2.105-1.956-4.925-3.152-8.024-3.152c-3.106,0-5.931,1.201-8.037,3.163C9.821,9.584,10.36,9.884,10.801,10.159z M6.624,8.321
				C9.276,5.359,13.128,3.5,17.418,3.5c4.285,0,8.132,1.856,10.785,4.813c1.127-0.302,2.301-0.48,3.514-0.516l0,4.856
				c1.853,1.153,3.085,3.208,3.085,5.55c0,2.347-1.238,4.405-3.097,5.556l-0.02,0.121C30.91,31.025,24.759,36.5,17.355,36.5
				c-7.406,0-13.501-5.573-14.27-12.726C1.231,22.596,0,20.543,0,18.202c0-2.339,1.229-4.389,3.076-5.543V7.795
				C4.305,7.831,5.484,8.014,6.624,8.321z"/>
			<g>
				<path fill="#111111" d="M20.975,22.276c1.918-0.218,5.138-0.193,5.138-0.193c-0.053,0.574,0.008,2.268-1.839,3.328
					c-0.306,0.176-1.069,0.423-1.788,0.456c-1.773,0.08-4.301,0.103-4.301,0.103C18.632,23.958,19.372,22.458,20.975,22.276z"/>
				<path fill="#111111" d="M13.816,22.276c1.602,0.182,2.343,1.682,2.789,3.694c0,0-2.528-0.022-4.301-0.103
					c-0.719-0.033-1.482-0.281-1.788-0.456c-1.847-1.059-1.786-2.753-1.839-3.328C8.678,22.083,11.897,22.058,13.816,22.276z"/>
			</g>
			<path fill="#111111" d="M20.773,31.368c-0.967,0.584-2.127,0.925-3.375,0.925c-1.248,0-2.408-0.341-3.376-0.925
				c0,0,0.064-0.38,0.262-0.672c0.243-0.357,0.449-0.46,0.449-0.46c0.825,0.241,1.723,0.373,2.664,0.373
				c0.94,0,1.839-0.132,2.664-0.373c0,0,0.254,0.138,0.482,0.511C20.753,31.091,20.773,31.368,20.773,31.368z"/>
		</g>
	</g>
</g>
</svg>
